<?xml version="1.0" standalone="no"?>
<!DOCTYPE svg PUBLIC "-//W3C//DTD SVG 20010904//EN"
 "http://www.w3.org/TR/2001/REC-SVG-20010904/DTD/svg10.dtd">
<svg version="1.0" xmlns="http://www.w3.org/2000/svg"
 width="720.000000pt" height="200.000000pt" viewBox="0 0 720.000000 200.000000"
 preserveAspectRatio="xMidYMid meet">

<g transform="translate(0.000000,200.000000) scale(0.100000,-0.100000)"
fill="#000000" stroke="none">
<path d="M705 1775 c-70 -58 -132 -105 -137 -105 -4 0 -8 17 -8 38 0 55 -18
110 -40 122 -10 5 -59 10 -109 10 -85 0 -91 -1 -110 -26 -19 -25 -21 -40 -21
-204 l0 -177 -100 -82 c-76 -62 -100 -88 -100 -106 0 -35 36 -55 97 -55 l52 0
3 -421 3 -421 24 -19 c21 -17 41 -19 201 -19 98 0 186 3 195 6 37 15 45 56 45
234 0 127 4 178 14 198 51 99 178 118 255 38 44 -45 54 -99 45 -251 -8 -143 4
-201 42 -215 14 -6 110 -10 213 -10 175 0 190 1 215 21 l26 20 2 402 3 402 58
5 c63 6 90 27 85 64 -4 27 -155 156 -182 156 -54 0 -60 -48 -11 -87 19 -15 35
-31 35 -35 0 -4 -16 -14 -35 -22 -19 -8 -36 -16 -37 -18 -1 -2 -5 -185 -8
-408 l-5 -405 -135 -3 c-199 -4 -180 -23 -180 179 0 148 -2 175 -19 207 -75
146 -264 183 -388 77 -73 -62 -83 -97 -83 -282 0 -125 -3 -163 -14 -172 -9 -8
-56 -11 -142 -9 l-129 3 -5 420 -5 420 -39 19 -40 19 67 61 67 61 3 170 2 170
45 0 45 0 5 -105 c5 -108 11 -130 35 -130 7 0 87 61 177 135 90 74 168 135
173 135 6 0 112 -81 235 -180 175 -141 231 -180 250 -178 20 2 26 9 28 34 3
29 -8 40 -220 211 -260 208 -266 213 -293 213 -12 0 -78 -46 -150 -105z"/>
<path d="M6697 1338 c-14 -11 -17 -37 -19 -178 l-3 -165 -160 -5 c-88 -3 -166
-9 -172 -13 -17 -11 -17 -52 0 -66 8 -6 76 -12 173 -13 l159 -3 3 -164 c1
-101 7 -170 13 -178 14 -17 55 -17 66 0 4 6 10 86 13 177 l5 165 159 3 c163 3
186 8 186 43 0 40 -35 49 -197 49 l-153 0 0 160 c0 147 -2 162 -20 180 -23 23
-30 24 -53 8z"/>
<path d="M2230 1179 c-146 -29 -277 -151 -330 -310 -18 -53 -21 -81 -18 -164
3 -86 8 -109 34 -165 137 -289 511 -349 734 -119 55 57 90 118 112 198 31 111
18 219 -40 325 -99 183 -291 274 -492 235z m212 -99 c64 -24 149 -96 184 -156
111 -189 42 -417 -158 -521 -47 -24 -64 -27 -148 -28 -81 0 -102 4 -145 25
-67 33 -131 99 -163 168 -38 81 -43 212 -12 295 69 184 269 282 442 217z"/>
<path d="M3304 1176 c-52 -17 -128 -69 -156 -107 -12 -16 -25 -29 -30 -29 -4
0 -8 24 -8 54 0 61 -18 89 -53 84 -44 -6 -47 -30 -46 -438 1 -212 4 -396 8
-410 5 -19 15 -26 37 -28 17 -2 36 3 41 10 7 8 13 109 15 278 4 248 5 269 27
323 57 145 214 224 337 168 48 -22 109 -90 126 -140 7 -23 14 -147 17 -336 l6
-300 30 -3 c53 -6 55 5 55 298 0 315 4 336 84 416 139 138 349 99 411 -77 12
-33 15 -101 15 -315 0 -153 4 -284 10 -298 7 -20 17 -26 39 -26 51 0 53 13 49
338 -4 334 -8 356 -84 449 -57 69 -126 98 -234 98 -113 -1 -178 -30 -262 -117
l-61 -63 -16 25 c-76 116 -131 151 -244 156 -43 2 -89 -2 -113 -10z"/>
<path d="M4892 1180 c-216 -46 -376 -303 -333 -535 43 -233 234 -380 471 -362
99 7 163 28 239 77 64 42 85 72 69 103 -14 27 -45 20 -111 -23 -83 -56 -151
-74 -252 -68 -178 12 -310 134 -317 294 l-3 59 350 5 c193 3 356 9 363 13 16
11 15 99 -2 165 -29 107 -109 202 -211 248 -61 28 -189 40 -263 24z m247 -116
c30 -16 67 -47 83 -68 31 -43 63 -138 54 -162 -4 -12 -53 -14 -305 -14 -176 0
-302 4 -306 9 -8 14 29 107 60 146 66 87 158 127 280 122 66 -3 90 -8 134 -33z"/>
</g>
</svg>
